<?xml version="1.0" encoding="iso-8859-1"?>
<!-- Generator: Adobe Illustrator 19.0.0, SVG Export Plug-In . SVG Version: 6.00 Build 0)  -->
<svg version="1.1" id="Layer_1" xmlns="http://www.w3.org/2000/svg" xmlns:xlink="http://www.w3.org/1999/xlink" x="0px" y="0px"
	 viewBox="0 0 381.509 381.509" style="enable-background:new 0 0 381.509 381.509;" xml:space="preserve">
<g>
	<g>
		<polygon style="fill:#004D7A;" points="359.589,307.647 21.92,307.647 11.36,275.623 370.148,275.623 		"/>
		<path style="fill:#006098;" d="M370.148,252.902H11.36c-6.274,0-11.36,5.086-11.36,11.36c0,6.274,5.086,11.36,11.36,11.36h358.788
			c6.274,0,11.36-5.086,11.36-11.36C381.509,257.988,376.422,252.902,370.148,252.902z"/>
	</g>
	<g>
		<path style="fill:#D99C16;" d="M236.62,73.861c30.024,0,54.364,24.339,54.364,54.364l18.84,124.677H180.658l1.598-124.677
			C182.255,98.201,206.595,73.861,236.62,73.861z"/>
		<path style="fill:#D99C16;" d="M144.89,73.861c-30.024,0-54.364,24.339-54.364,54.364l-18.84,124.677h129.166l-1.598-124.677
			C199.254,98.201,174.915,73.861,144.89,73.861z"/>
		<path style="fill:#FFB819;" d="M107.451,73.861c-30.025,0-54.364,24.339-54.364,54.364L27.209,252.902h129.167l5.439-124.677
			C161.815,98.201,137.476,73.861,107.451,73.861z"/>
		<path style="fill:#FFB819;" d="M274.058,73.861c30.025,0,54.364,24.339,54.364,54.364L354.3,252.902H225.134l-5.439-124.677
			C219.694,98.201,244.034,73.861,274.058,73.861z"/>
		<path style="fill:#FFD26C;" d="M190.755,73.861c-30.025,0-54.364,24.339-54.364,54.364l-10.219,124.677h129.166l-10.219-124.677
			C245.119,98.201,220.779,73.861,190.755,73.861z"/>
		<circle style="fill:#FFD26C;" cx="297.986" cy="108.563" r="15.065"/>
		<circle style="fill:#FFDF9A;" cx="211.138" cy="108.563" r="15.065"/>
	</g>
</g>
<g>
</g>
<g>
</g>
<g>
</g>
<g>
</g>
<g>
</g>
<g>
</g>
<g>
</g>
<g>
</g>
<g>
</g>
<g>
</g>
<g>
</g>
<g>
</g>
<g>
</g>
<g>
</g>
<g>
</g>
</svg>
