<?xml version="1.0" encoding="iso-8859-1"?>
<!-- Generator: Adobe Illustrator 19.0.0, SVG Export Plug-In . SVG Version: 6.00 Build 0)  -->
<svg version="1.1" id="Layer_1" xmlns="http://www.w3.org/2000/svg" xmlns:xlink="http://www.w3.org/1999/xlink" x="0px" y="0px"
	 viewBox="0 0 512 512" style="enable-background:new 0 0 512 512;" xml:space="preserve">
<g>
	<path style="fill:#E6E6E6;" d="M321.172,512H182.507c-7.619,0-14.067-5.615-15.117-13.164l-41.559-299.242H386.17l-49.95,299.659
		C334.996,506.611,328.635,512,321.172,512"/>
	<polygon style="fill:#F85B57;" points="348.562,425.22 377.485,251.661 133.062,251.661 157.161,425.22 	"/>
	<path style="fill:#D2D5D7;" d="M387.376,199.593h-262.76c-8.912,0-16.141-7.229-16.141-16.15v-2.412
		c0-8.921,7.229-16.15,16.141-16.15h262.76c8.921,0,16.15,7.229,16.15,16.15v2.412C403.525,192.364,396.297,199.593,387.376,199.593
		"/>
	<path style="fill:#FAF6E5;" d="M368.879,164.881c-17.825-44.943-61.596-76.765-112.883-76.765s-95.058,31.822-112.883,76.765
		H368.879z"/>
	<path style="fill:#3DABEF;" d="M316.755,112.818c-0.408,0-0.824-0.026-1.241-0.087c-4.738-0.677-8.036-5.077-7.359-9.823
		l8.678-60.746c0.382-2.647,1.961-4.972,4.287-6.3L381.866,1.15c4.148-2.386,9.459-0.937,11.837,3.228
		c2.386,4.157,0.937,9.459-3.228,11.837l-57.058,32.603l-8.079,56.554C324.722,109.694,321.008,112.818,316.755,112.818"/>
	<path style="fill:#F9DA49;" d="M308.065,338.68c0-28.759-23.309-52.068-52.068-52.068s-52.068,23.309-52.068,52.068
		c0,28.759,23.309,52.068,52.068,52.068S308.065,367.439,308.065,338.68"/>
</g>
<g>
</g>
<g>
</g>
<g>
</g>
<g>
</g>
<g>
</g>
<g>
</g>
<g>
</g>
<g>
</g>
<g>
</g>
<g>
</g>
<g>
</g>
<g>
</g>
<g>
</g>
<g>
</g>
<g>
</g>
</svg>
